<?xml version="1.0" encoding="UTF-8"?>
<svg version="1.1" xmlns="http://www.w3.org/2000/svg" width="180" height="180">
<path d="M0 0 C59.4 0 118.8 0 180 0 C180 59.4 180 118.8 180 180 C120.6 180 61.2 180 0 180 C0 120.6 0 61.2 0 0 Z " fill="#FDFDFD" transform="translate(0,0)"/>
<path d="M0 0 C10.95382686 8.23176809 15.66308391 19.93166068 21.109375 32.0859375 C21.81866136 33.6524942 22.5284628 35.2188178 23.23876953 36.78491211 C27.53738335 46.28875715 31.75221332 55.82787489 35.73364258 65.46972656 C37.47064386 69.74646439 37.47064386 69.74646439 40.296875 73.3359375 C41.18656982 72.92867432 42.07626465 72.52141113 42.99291992 72.10180664 C47.1553172 70.19756602 51.31964621 68.29757254 55.484375 66.3984375 C56.23518341 66.05579865 56.98599182 65.71315979 57.759552 65.36013794 C66.86838048 61.20645948 75.99970812 57.1414422 85.234375 53.2734375 C98.84171819 48.04356498 98.84171819 48.04356498 108.51171875 37.73828125 C110.41964214 31.9006052 110.6946661 25.55339847 108.22265625 19.86328125 C104.98674028 15.12022633 100.91843945 11.70619383 95.296875 10.3359375 C90.60844348 10.03280615 85.98694825 10.09879896 81.296875 10.3359375 C81.296875 10.9959375 81.296875 11.6559375 81.296875 12.3359375 C80.38421875 12.69171875 79.4715625 13.0475 78.53125 13.4140625 C74.66180493 15.71329797 73.3338485 18.12882167 71.546875 22.0859375 C71.21743896 22.76825439 70.88800293 23.45057129 70.54858398 24.15356445 C68.49354973 28.48338958 66.6575529 32.88223468 64.87890625 37.33203125 C64.4602832 38.35651367 64.04166016 39.38099609 63.61035156 40.43652344 C62.79187116 42.45620848 61.99964653 44.48678345 61.23730469 46.52832031 C58.77024261 52.6156865 56.52502412 55.67145875 50.50610352 58.45581055 C49.77705811 58.74625244 49.0480127 59.03669434 48.296875 59.3359375 C47.21277344 59.78582031 46.12867187 60.23570313 45.01171875 60.69921875 C44.09519531 61.01246094 43.17867188 61.32570313 42.234375 61.6484375 C41.29464844 61.97457031 40.35492188 62.30070312 39.38671875 62.63671875 C38.69707031 62.86746094 38.00742188 63.09820312 37.296875 63.3359375 C39.57568424 56.05893998 42.4401829 49.17077606 45.546875 42.2109375 C46.03704102 41.10943359 46.52720703 40.00792969 47.03222656 38.87304688 C48.00752345 36.68617314 48.985 34.50026995 49.96484375 32.31542969 C51.09913348 29.77824642 52.21724591 27.2349789 53.328125 24.6875 C58.22711225 13.59775275 64.63436373 2.39673023 76.37890625 -2.5390625 C87.09682463 -5.40247669 98.36068681 -4.48267412 108.296875 0.3359375 C109.286875 0.9959375 110.276875 1.6559375 111.296875 2.3359375 C111.296875 2.9959375 111.296875 3.6559375 111.296875 4.3359375 C111.88082031 4.55507812 112.46476563 4.77421875 113.06640625 5 C116.00937745 6.76269028 117.18823326 8.80438275 118.984375 11.7109375 C119.58636719 12.66742187 120.18835938 13.62390625 120.80859375 14.609375 C124.78856964 21.9007744 124.49672111 32.34092599 122.578125 40.328125 C121.6316883 42.77817486 120.55302198 45.03092853 119.296875 47.3359375 C118.78833984 48.41101562 118.78833984 48.41101562 118.26953125 49.5078125 C112.48591778 60.45757181 98.04840321 64.29861545 87.32910156 69.00292969 C82.8108085 70.98923244 78.30221334 72.99722448 73.79272461 75.00341797 C71.47901853 76.03240204 69.16475769 77.06013991 66.84985352 78.08642578 C59.98159612 81.13227295 53.13069214 84.2135679 46.296875 87.3359375 C47.60838341 91.44217607 49.11625607 95.3644754 50.87109375 99.30078125 C51.37044434 100.42339355 51.86979492 101.54600586 52.38427734 102.70263672 C53.17632568 104.47018311 53.17632568 104.47018311 53.984375 106.2734375 C54.53084595 107.497521 55.07723225 108.72164228 55.62353516 109.94580078 C58.94199745 117.36289696 62.29998668 124.75765511 65.77734375 132.1015625 C66.84417492 134.37234967 67.88636573 136.65479812 68.91015625 138.9453125 C69.42964844 140.10546875 69.94914062 141.265625 70.484375 142.4609375 C70.93167969 143.47414062 71.37898438 144.48734375 71.83984375 145.53125 C74.62477413 150.89205433 77.49572532 154.40222094 83.296875 156.3359375 C90.61900582 157.20466489 96.73399318 157.22684887 102.78125 152.69140625 C107.58378336 148.39635709 109.05551039 143.83003843 109.671875 137.4609375 C109.51187122 131.89280591 107.31752995 127.32784329 103.375 123.44140625 C98.78174523 120.29957335 93.80489211 118.16412031 88.734375 115.8984375 C87.71279297 115.43373047 86.69121094 114.96902344 85.63867188 114.49023438 C84.61708984 114.02810547 83.59550781 113.56597656 82.54296875 113.08984375 C81.51824463 112.62441162 80.49352051 112.15897949 79.43774414 111.67944336 C77.32704234 110.77659128 75.18244715 109.94954616 73.01342773 109.19750977 C64.06413162 106.01643494 64.06413162 106.01643494 61.33984375 100.98046875 C60.67819656 99.3870344 60.05948672 97.77510789 59.484375 96.1484375 C59.14857422 95.32923828 58.81277344 94.51003906 58.46679688 93.66601562 C56.80945784 89.4795979 56.80945784 89.4795979 56.296875 87.3359375 C56.626875 86.6759375 56.956875 86.0159375 57.296875 85.3359375 C61.24768117 87.07518128 65.19280304 88.82627384 69.1328125 90.58984375 C73.19738298 92.40805885 77.27259257 94.19975838 81.3547821 95.97789001 C84.29050933 97.26105843 87.21954145 98.5590913 90.1477356 99.85934448 C91.60855976 100.50440022 93.07197556 101.14362211 94.53805542 101.77664185 C106.15115519 106.79785695 116.62040257 112.34467446 122.296875 124.3359375 C125.9357108 133.6323272 125.414033 143.72687638 121.546875 152.87109375 C116.71341816 162.40206645 109.81657301 167.35002993 99.921875 171.2109375 C90.51337365 173.98204813 81.9066439 172.7876672 73.296875 168.3359375 C56.19812621 158.94838914 49.91003613 135.13733189 42.62207031 118.36669922 C41.38068447 115.52761228 40.12171199 112.6974108 38.8515625 109.87109375 C38.48095703 109.04593262 38.11035156 108.22077148 37.72851562 107.37060547 C37.04470563 105.85162458 36.35865432 104.33364985 35.66992188 102.81689453 C34.26148668 99.67958252 33.06407931 96.68569634 32.296875 93.3359375 C30.86601562 94.03203125 30.86601562 94.03203125 29.40625 94.7421875 C16.34573642 101.03382822 3.10557234 106.90537483 -10.15917969 112.75 C-10.92512955 113.08827316 -11.69107941 113.42654633 -12.48023987 113.77507019 C-13.91724634 114.40955417 -15.35496483 115.04242926 -16.79356384 115.67329407 C-20.90956835 117.49136657 -24.94053999 119.42835276 -28.94099426 121.48893738 C-30.703125 122.3359375 -30.703125 122.3359375 -33.703125 123.3359375 C-34.86234628 125.06736604 -34.86234628 125.06736604 -35.703125 127.3359375 C-36.074375 128.2021875 -36.445625 129.0684375 -36.828125 129.9609375 C-38.35203027 135.83885782 -38.61537523 141.20735363 -36.203125 146.8359375 C-35.708125 147.6609375 -35.213125 148.4859375 -34.703125 149.3359375 C-34.703125 149.9959375 -34.703125 150.6559375 -34.703125 151.3359375 C-34.14625 151.6040625 -33.589375 151.8721875 -33.015625 152.1484375 C-30.703125 153.3359375 -30.703125 153.3359375 -28.4609375 154.88671875 C-23.51626634 157.48512243 -18.14916838 156.85722125 -12.703125 156.3359375 C-9.21467411 155.1381636 -9.21467411 155.1381636 -6.703125 153.3359375 C-5.589375 152.93375 -5.589375 152.93375 -4.453125 152.5234375 C-1.81304828 150.73195687 -1.6699245 148.33743347 -0.703125 145.3359375 C0.24524481 143.14455053 1.22526777 140.96668826 2.23046875 138.80078125 C2.50907242 138.19964005 2.78767609 137.59849884 3.07472229 136.97914124 C3.66062753 135.71705199 4.24812951 134.45570288 4.8371582 133.19506836 C5.73256996 131.27730348 6.62150567 129.35663299 7.50976562 127.43554688 C8.08294885 126.20294613 8.65650409 124.97051831 9.23046875 123.73828125 C9.74665771 122.62960693 10.26284668 121.52093262 10.79467773 120.37866211 C14.90485113 112.0534401 14.90485113 112.0534401 18.765625 110.31640625 C19.41917969 110.01669922 20.07273437 109.71699219 20.74609375 109.40820312 C21.42285156 109.11623047 22.09960938 108.82425781 22.796875 108.5234375 C23.81201172 108.05647461 23.81201172 108.05647461 24.84765625 107.58007812 C27.81853604 106.24699104 30.0073864 105.3359375 33.296875 105.3359375 C31.07343513 112.49541388 28.21872603 119.17385842 25.046875 125.9609375 C24.31271362 127.54273804 24.31271362 127.54273804 23.5637207 129.15649414 C22.58859996 131.25664298 21.61183705 133.35603025 20.63330078 135.45458984 C19.48261588 137.93547827 18.35008913 140.42295993 17.23046875 142.91796875 C11.77849296 155.01259871 6.72683154 164.45901244 -5.703125 170.3359375 C-15.7213686 173.73195228 -25.25341331 173.4373571 -34.875 168.94140625 C-43.82437448 163.8610293 -49.03661687 157.26620193 -52.3046875 147.546875 C-53.94033772 138.47061986 -54.04081738 128.43994259 -49.1875 120.41015625 C-42.83944275 111.53958152 -36.53054687 106.87785885 -26.39453125 102.84375 C-21.86208295 100.99240075 -17.41118124 98.98356631 -12.953125 96.9609375 C-6.69883287 94.13013386 -0.43554762 91.32528155 5.859375 88.5859375 C12.0342277 85.89850473 18.17818346 83.14898001 24.296875 80.3359375 C23.72643276 75.62211937 22.38810505 72.00679675 20.30859375 67.75 C19.6692315 66.4204747 19.0318045 65.09001755 18.39599609 63.75878906 C18.05550232 63.04742798 17.71500854 62.33606689 17.36419678 61.60314941 C15.44734197 57.53135386 13.63719934 53.41228751 11.81640625 49.296875 C11.03734673 47.54546732 10.25804783 45.7941661 9.47851562 44.04296875 C8.2835881 41.35654431 7.09096597 38.66919544 5.90454102 35.97900391 C4.73606279 33.33191199 3.55831759 30.68911027 2.37890625 28.046875 C2.02778275 27.24478607 1.67665924 26.44269714 1.31489563 25.61630249 C-1.42077614 19.52011505 -3.98227009 14.52360324 -10.515625 12.0234375 C-17.0834246 9.68395852 -21.49060225 9.57391994 -27.890625 12.4609375 C-33.41672987 15.41715166 -35.71092835 18.35934756 -37.703125 24.3359375 C-38.30769266 30.23047219 -37.9902462 36.25020281 -34.703125 41.3359375 C-30.21195172 45.64910696 -25.46247375 48.148465 -19.828125 50.7109375 C-18.99893555 51.10321533 -18.16974609 51.49549316 -17.31542969 51.8996582 C-13.31080158 53.77544191 -9.32310709 55.51832602 -5.1484375 56.98046875 C2.2296989 59.63777701 7.21108603 62.06953957 10.671875 69.3984375 C12.42604488 73.64315339 13.87471916 77.96978617 15.296875 82.3359375 C10.45363872 80.81905294 5.8837592 78.91622311 1.2578125 76.8515625 C0.11465073 76.34444733 0.11465073 76.34444733 -1.05160522 75.8270874 C-2.66082579 75.11233035 -4.26942699 74.39617738 -5.87744141 73.67871094 C-8.29798879 72.5993754 -10.72108591 71.52593505 -13.14453125 70.453125 C-45.65512586 56.01826397 -45.65512586 56.01826397 -52.078125 39.8359375 C-54.951127 31.19288965 -54.20008894 23.71545485 -50.703125 15.3359375 C-46.62473716 7.57302481 -40.78621391 0.68265217 -32.453125 -2.5390625 C-21.54837623 -5.81048713 -10.02860741 -6.17368028 0 0 Z " fill="#9978B5" transform="translate(54.703125,6.6640625)"/>
<path d="M0 0 C4.72330897 9.77043818 9.31771417 19.57351252 13.5625 29.5625 C13.93342773 30.43382568 14.30435547 31.30515137 14.68652344 32.20288086 C15.42778032 33.94580561 16.16866999 35.68888658 16.90917969 37.43212891 C17.26915039 38.27952637 17.62912109 39.12692383 18 40 C18.53222168 41.25369385 18.53222168 41.25369385 19.07519531 42.53271484 C25.41215496 57.38624399 31.15969778 70.56487722 47 77 C49.32369145 77.77456382 51.62082766 78.40520692 54 79 C54 79.33 54 79.66 54 80 C7.47 80 -39.06 80 -87 80 C-87 51 -87 51 -86 40 C-85.67 40 -85.34 40 -85 40 C-84.91363281 41.03898437 -84.82726562 42.07796875 -84.73828125 43.1484375 C-83.74877985 53.52823236 -82.22867699 62.23189536 -74.4375 69.8125 C-66.86630165 75.80695723 -58.53693343 78.83005668 -48.87890625 78.3515625 C-39.62711085 77.22176388 -31.58638249 73.94743813 -25.1640625 67.01953125 C-19.85956097 60.04687201 -16.69996479 51.97756421 -13.28808594 43.97900391 C-10.88417823 38.41939778 -8.38565645 32.90156939 -5.9006958 27.37783813 C-4.45210537 24.15667051 -3.00758115 20.93368053 -1.5625 17.7109375 C-0.70837397 15.80727344 0.14577632 13.90362025 1 12 C-3.02434456 13.61238107 -7.01549939 15.29173274 -11 17 C-11.71929687 17.27730957 -12.43859375 17.55461914 -13.1796875 17.84033203 C-19.24681315 20.57559451 -20.75086346 26.07720521 -23 31.875 C-23.85834424 33.95408964 -24.71901946 36.03221848 -25.58203125 38.109375 C-25.99404785 39.11806641 -26.40606445 40.12675781 -26.83056641 41.16601562 C-34.16062882 58.92955727 -34.16062882 58.92955727 -42 63 C-48.26717444 65.08905815 -55.63263418 65.16291654 -61.5625 62.25 C-62.366875 61.5075 -63.17125 60.765 -64 60 C-64.721875 59.38125 -65.44375 58.7625 -66.1875 58.125 C-70.4304674 53.15048649 -71.50634811 48.86588449 -71.28515625 42.4609375 C-70.53990607 36.02932635 -67.66553809 32.22835012 -63 28 C-60.1875 26.30566406 -60.1875 26.30566406 -57 24.765625 C-56.40461426 24.47689514 -55.80922852 24.18816528 -55.19580078 23.89068604 C-46.24166195 19.60396821 -37.10512071 15.7017353 -28 11.75 C-25.23070402 10.54528621 -22.46189552 9.33947584 -19.69384766 8.13189697 C-17.98728929 7.38767254 -16.27997626 6.64517528 -14.57177734 5.90472412 C-11.18251354 4.428922 -7.85588493 2.9267565 -4.55859375 1.25097656 C-2 0 -2 0 0 0 Z " fill="#FBFDFE" transform="translate(87,100)"/>
<path d="M0 0 C0.2475 0.9075 0.495 1.815 0.75 2.75 C2.51975893 7.35137322 4.96047408 9.30698272 9 12 C7.95134766 12.46374023 6.90269531 12.92748047 5.82226562 13.40527344 C1.90018583 15.14032369 -2.02077015 16.87790117 -5.94140625 18.61621094 C-7.63251093 19.36558977 -9.3239122 20.11429969 -11.015625 20.86230469 C-13.45913329 21.94286555 -15.90153465 23.02589562 -18.34375 24.109375 C-19.46299866 24.60337799 -19.46299866 24.60337799 -20.6048584 25.10736084 C-24.88810373 27.01082577 -29.09484657 29.01635622 -33.26135254 31.16412354 C-35 32 -35 32 -38 33 C-39.15922128 34.73142854 -39.15922128 34.73142854 -40 37 C-40.37125 37.86625 -40.7425 38.7325 -41.125 39.625 C-42.64890527 45.50292032 -42.91225023 50.87141613 -40.5 56.5 C-39.7575 57.7375 -39.7575 57.7375 -39 59 C-39 59.66 -39 60.32 -39 61 C-38.443125 61.268125 -37.88625 61.53625 -37.3125 61.8125 C-35 63 -35 63 -32.7578125 64.55078125 C-27.81314134 67.14918493 -22.44604338 66.52128375 -17 66 C-13.51154911 64.8022261 -13.51154911 64.8022261 -11 63 C-10.2575 62.731875 -9.515 62.46375 -8.75 62.1875 C-6.10992328 60.39601937 -5.9667995 58.00149597 -5 55 C-4.05163019 52.80861303 -3.07160723 50.63075076 -2.06640625 48.46484375 C-1.78780258 47.86370255 -1.50919891 47.26256134 -1.22215271 46.64320374 C-0.63624747 45.38111449 -0.04874549 44.11976538 0.5402832 42.85913086 C1.43569496 40.94136598 2.32463067 39.02069549 3.21289062 37.09960938 C3.78607385 35.86700863 4.35962909 34.63458081 4.93359375 33.40234375 C5.44978271 32.29366943 5.96597168 31.18499512 6.49780273 30.04272461 C10.60797613 21.7175026 10.60797613 21.7175026 14.46875 19.98046875 C15.12230469 19.68076172 15.77585937 19.38105469 16.44921875 19.07226562 C17.46435547 18.63430664 17.46435547 18.63430664 18.5 18.1875 C19.17675781 17.87619141 19.85351562 17.56488281 20.55078125 17.24414062 C23.52166104 15.91105354 25.7105114 15 29 15 C26.77656013 22.15947638 23.92185103 28.83792092 20.75 35.625 C20.01583862 37.20680054 20.01583862 37.20680054 19.2668457 38.82055664 C18.29172496 40.92070548 17.31496205 43.02009275 16.33642578 45.11865234 C15.18574088 47.59954077 14.05321413 50.08702243 12.93359375 52.58203125 C7.48161796 64.67666121 2.42995654 74.12307494 -10 80 C-20.0182436 83.39601478 -29.55028831 83.1014196 -39.171875 78.60546875 C-48.12124948 73.5250918 -53.33349187 66.93026443 -56.6015625 57.2109375 C-58.23721272 48.13468236 -58.33769238 38.10400509 -53.484375 30.07421875 C-47.15003207 21.22280797 -40.8537076 16.54682485 -30.734375 12.52734375 C-25.05555595 10.24913891 -19.51202281 7.65271743 -13.94262695 5.12207031 C-2.64296925 0 -2.64296925 0 0 0 Z " fill="#04C9EE" transform="translate(59,97)"/>
<path d="M0 0 C4.35847385 3.20119171 7.8775042 6.91134224 8.82421875 12.33984375 C9.72570002 19.58592735 8.9542999 24.37795641 4.72265625 30.3671875 C-0.47947223 35.77269138 -7.20679703 38.25724844 -13.98828125 41.15234375 C-24.7915748 45.83079349 -35.52647637 50.64379676 -46.23828125 55.52734375 C-46.98381256 55.86698151 -47.72934387 56.20661926 -48.49746704 56.55654907 C-52.72450661 58.4822698 -56.95060154 60.41004591 -61.17578125 62.33984375 C-64.45908269 59.41635617 -65.13445058 56.5852688 -66.17578125 52.33984375 C-63.47822406 49.64228656 -60.29897672 48.67816853 -56.80078125 47.33984375 C-54.25293078 46.35389395 -51.7132819 45.35264228 -49.17578125 44.33984375 C-48.48887207 44.0763916 -47.80196289 43.81293945 -47.09423828 43.54150391 C-44.54191042 41.94280733 -44.00937406 40.44841887 -42.87890625 37.67578125 C-42.28275513 36.25023926 -42.28275513 36.25023926 -41.67456055 34.79589844 C-41.26246338 33.77915039 -40.85036621 32.76240234 -40.42578125 31.71484375 C-39.54468517 29.62242429 -38.66054825 27.5312828 -37.7734375 25.44140625 C-37.33660645 24.40790039 -36.89977539 23.37439453 -36.44970703 22.30957031 C-34.68182987 18.18836339 -32.82224338 14.12339455 -30.86328125 10.08984375 C-30.56260742 9.44192871 -30.26193359 8.79401367 -29.95214844 8.12646484 C-28.00891051 4.18986156 -26.19349178 2.14879661 -22.17578125 0.33984375 C-21.51578125 0.33984375 -20.85578125 0.33984375 -20.17578125 0.33984375 C-20.17578125 -0.32015625 -20.17578125 -0.98015625 -20.17578125 -1.66015625 C-13.21475166 -3.62393295 -6.37090707 -3.6312878 0 0 Z " fill="#FEFBFA" transform="translate(156.17578125,18.66015625)"/>
<path d="M0 0 C1.50605402 3.28893003 3.00380532 6.58157446 4.5 9.875 C5.14388672 11.28072266 5.14388672 11.28072266 5.80078125 12.71484375 C6.40986328 14.05869141 6.40986328 14.05869141 7.03125 15.4296875 C7.40830078 16.25710449 7.78535156 17.08452148 8.17382812 17.93701172 C9 20 9 20 9 22 C9.67039307 22.10038574 10.34078613 22.20077148 11.03149414 22.30419922 C14.71589109 23.16780077 18.05191793 24.60203924 21.49609375 26.1328125 C22.20725845 26.44773651 22.91842316 26.76266052 23.65113831 27.08712769 C25.1510233 27.75491999 26.64953069 28.42581399 28.14672852 29.09960938 C30.41960237 30.1169887 32.70241576 31.10926404 34.98632812 32.1015625 C43.6156211 35.93119254 49.56311039 38.90733206 54.375 47.4375 C55.97912731 54.01442198 55.19154434 58.95134498 52.2734375 64.953125 C49.60073953 69.24911806 45.66735474 72.09664611 41 74 C33.83259142 74.90066642 27.70080654 74.80346116 21.68359375 70.58203125 C17.85231501 66.98187374 15.42887797 63.19682585 13.44921875 58.3515625 C13.0015918 57.27116699 12.55396484 56.19077148 12.09277344 55.07763672 C11.39716309 53.36858154 11.39716309 53.36858154 10.6875 51.625 C9.70912373 49.26475653 8.72866597 46.90537477 7.74609375 44.546875 C7.27413574 43.41314453 6.80217773 42.27941406 6.31591797 41.11132812 C4.71345926 37.32250924 3.01987426 33.58801207 1.25 29.875 C-1.19908512 24.70998029 -3.60656734 19.53176226 -5.9375 14.3125 C-6.24461914 13.64009277 -6.55173828 12.96768555 -6.86816406 12.27490234 C-8.37432861 8.87430591 -9 6.79254327 -9 3 C-2.25 0 -2.25 0 0 0 Z " fill="#FCFCFE" transform="translate(110,90)"/>
<path d="M0 0 C2.26890941 0.47090573 3.8473182 0.98442899 5.875 2.125 C7.515169 5.20031687 7.29347417 7.59242459 6.875 11 C5.375 13.4375 5.375 13.4375 2.875 15 C0.06822499 15.60966834 -2.32514415 15.6655395 -5.125 15 C-7.85580856 12.61054251 -8.89400145 11.02666021 -9.6875 7.5 C-8.50755136 2.25578381 -5.32519872 -0.49125449 0 0 Z " fill="#D753C3" transform="translate(38.125,30)"/>
<path d="M0 0 C2.4375 1.5625 2.4375 1.5625 4 4 C4.55802097 7.90614682 4.58392818 10.05111671 2.5 13.4375 C-0.53037933 15.33148708 -2.55856953 15.64063361 -6.08984375 15.44921875 C-8 15 -8 15 -10.5625 12.875 C-12 10 -12 10 -12 6.9375 C-9.82838684 0.55838634 -6.62067511 -0.94581073 0 0 Z " fill="#0AE5EB" transform="translate(41,137)"/>
<path d="M0 0 C2.875 1.5625 2.875 1.5625 5 4 C5.63734462 7.96569988 5.61999672 10.03280512 3.4375 13.4375 C0.05782196 15.60396028 -2.05983987 15.56288002 -6 15 C-8.4375 13.4375 -8.4375 13.4375 -10 11 C-10.56783945 7.02512383 -10.62340519 4.93510779 -8.375 1.5625 C-5.26456309 -0.48384007 -3.66322334 -0.59807728 0 0 Z " fill="#A76AFF" transform="translate(146,137)"/>
<path d="M0 0 C3.375 1.0625 3.375 1.0625 5.3125 2.75 C6.71317538 5.79852877 6.8592732 7.74176952 6.375 11.0625 C4.875 13.4375 4.875 13.4375 2.375 15.0625 C-0.5881605 15.64678517 -2.52659561 15.45594818 -5.625 15.0625 C-8.28156032 12.90404474 -8.55404589 11.47935537 -9.125 8.125 C-8.625 5.0625 -8.625 5.0625 -6.5625 2.125 C-3.625 0.0625 -3.625 0.0625 0 0 Z " fill="#FFBC08" transform="translate(144.625,29.9375)"/>
<path d="M0 0 C1.90425248 1.65587173 2.90466718 2.55057385 3.4375 5.0625 C3.7159375 6.0215625 3.7159375 6.0215625 4 7 C5.33008872 7.67311679 6.66394174 8.33881127 8 9 C9.65991211 10.44873047 9.65991211 10.44873047 11.27734375 12.1171875 C11.87353516 12.72433594 12.46972656 13.33148438 13.08398438 13.95703125 C13.69564453 14.58996094 14.30730469 15.22289062 14.9375 15.875 C18.79489164 19.84283658 22.5704252 23.65470442 27 27 C18.52895761 25.60302108 11.16491323 20.83736133 6 14 C0 3.6460177 0 3.6460177 0 0 Z " fill="#1999E5" transform="translate(110,151)"/>
<path d="M0 0 C-1.63958758 5.23272633 -3.38952035 10.15196636 -6 15 C-7.15518918 14.09515208 -8.29885406 13.1755794 -9.4375 12.25 C-10.07558594 11.73953125 -10.71367188 11.2290625 -11.37109375 10.703125 C-13.18810554 8.80332371 -13.60423197 7.56413092 -14 5 C-12.23244474 4.15973604 -10.46082737 3.32801278 -8.6875 2.5 C-7.70136719 2.0359375 -6.71523437 1.571875 -5.69921875 1.09375 C-3 0 -3 0 0 0 Z " fill="#3A93E0" transform="translate(88,112)"/>
<path d="M0 0 C0.33 0.66 0.66 1.32 1 2 C1.66 2 2.32 2 3 2 C3.33 2.99 3.66 3.98 4 5 C5.62384254 6.70841768 7.29745229 8.37000404 9 10 C10.2375 11.27230469 10.2375 11.27230469 11.5 12.5703125 C12.325 13.41335937 13.15 14.25640625 14 15.125 C14.825 15.97320312 15.65 16.82140625 16.5 17.6953125 C18.87717402 19.8867698 21.17164249 21.45450465 24 23 C23.67 23.66 23.34 24.32 23 25 C12.13160679 19.85070302 4.89593468 14.32329917 0 3 C0 2.01 0 1.02 0 0 Z " fill="#159BE7" transform="translate(3,45)"/>
<path d="M0 0 C4.58913637 3.60575001 8.32167983 7.47384007 12 12 C11.67 12.66 11.34 13.32 11 14 C9.72486237 12.92173635 8.45507431 11.83714481 7.1875 10.75 C6.47980469 10.14671875 5.77210937 9.5434375 5.04296875 8.921875 C3.0542608 7.05104458 1.46154264 5.30527231 0 3 C0 2.01 0 1.02 0 0 Z " fill="#0D9CE8" transform="translate(115,160)"/>
<path d="M0 0 C0.66 0 1.32 0 2 0 C2.2475 0.9075 2.495 1.815 2.75 2.75 C4.51975893 7.35137322 6.96047408 9.30698272 11 12 C9.68 12.33 8.36 12.66 7 13 C4.03 9.7 1.06 6.4 -2 3 C-1.34 2.01 -0.68 1.02 0 0 Z " fill="#1696E4" transform="translate(57,97)"/>
<path d="M0 0 C2.37184142 3.55776212 2.29824394 5.28020607 2.3125 9.5 C2.32925781 10.6446875 2.34601563 11.789375 2.36328125 12.96875 C2 16 2 16 -1 19 C-0.67 12.73 -0.34 6.46 0 0 Z " fill="#FED6B4" transform="translate(178,29)"/>
<path d="M0 0 C0.99 0 1.98 0 3 0 C5.75 2.8125 5.75 2.8125 8 6 C7.67 6.99 7.34 7.98 7 9 C5.82737096 7.88121617 4.66204862 6.75476949 3.5 5.625 C2.8503125 4.99851562 2.200625 4.37203125 1.53125 3.7265625 C0 2 0 2 0 0 Z " fill="#0E95E4" transform="translate(74,118)"/>
<path d="M0 0 C-0.33 1.98 -0.66 3.96 -1 6 C-1.99 5.34 -2.98 4.68 -4 4 C-4 3.34 -4 2.68 -4 2 C-4.99 1.67 -5.98 1.34 -7 1 C-3.375 -1.125 -3.375 -1.125 0 0 Z " fill="#2C98E4" transform="translate(81,116)"/>
</svg>
